<svg width="192" height="192" viewBox="0 0 192 192" fill="none" xmlns="http://www.w3.org/2000/svg">
<path d="M4.04517 186.438C7.01506 180.157 13.0675 167.123 13.5181 165.239C13.9687 163.355 30.8084 146.942 39.1719 138.971C35.3315 138.783 27.6507 137.936 27.6507 136.052C27.6507 133.696 33.8466 118.898 35.3315 118.335C36.5195 117.884 60.2001 115.211 71.892 113.931L76.9101 109.784L100.772 111.576L139.688 120.383L156.534 133.696V141.941L128.781 138.971L112.856 141.941L89.865 150.799L56.8377 167.594L43.5755 171.998L45.0605 162.576L39.1719 159.35L23.8104 171.998L4.04517 186.438Z" fill="#EFE800"/>
<path d="M88.7897 155.92C89.1482 155.408 96.6241 147.829 100.157 146.856C103.69 145.884 126.835 140.353 127.757 140.302C128.494 140.261 145.918 143.016 154.537 144.399C158.582 148.888 166.816 158.05 167.39 158.787C167.963 159.525 169.847 170.701 170.718 176.197V182.905C167.543 181.932 160.825 179.536 159.35 177.733C157.507 175.48 144.04 170.257 141.736 168.363C139.432 166.468 109.221 162.372 108.452 162.013C107.838 161.726 91.8108 161.894 83.874 162.013C82.6792 161.023 80.4023 158.992 80.8529 158.787C81.3035 158.582 86.3319 156.79 88.7897 155.92Z" fill="#FAC705"/>
<path d="M99.1844 151.516C113.573 146.857 135.642 149.57 135.642 149.57C135.642 149.57 124.224 153.206 121.254 153.513C118.284 153.82 159.453 153.513 167.748 178.143C176.043 202.773 140.251 167.441 138.766 167.441C137.578 167.441 121.885 164.71 114.187 163.345H89.8651C88.7897 163.345 81.9283 156.944 83.2596 156.227C84.3247 155.654 89.8139 152.848 92.4253 151.516C92.4253 151.516 84.7957 156.176 99.1844 151.516Z" fill="#F07F20"/>
<path fill-rule="evenodd" clip-rule="evenodd" d="M69.3878 0.736842C68.8564 1.35116 55.0775 39.0366 26.0897 119.158C23.3667 126.684 19.5823 137.105 17.6796 142.316C15.7773 147.526 11.7785 158.989 8.79368 167.789C5.80884 176.589 3.07832 184.3 2.72589 184.924C2.12926 185.981 0 191.351 0 191.799C0 191.909 0.616 191.992 1.36842 191.982C2.504 191.968 3.66737 191.141 8.21053 187.125C15.4173 180.755 22.1684 175.48 28.6316 171.169C33.8236 167.706 42.1726 162.88 42.4674 163.171C42.5507 163.253 40.5503 165.842 38.0223 168.923C30.5225 178.065 28.6291 180.546 24.7516 186.308L21.0623 191.789L24.9314 191.912C28.4147 192.021 28.928 191.938 30.0842 191.069C32.6358 189.154 38.0434 185.693 38.216 185.865C38.3133 185.962 37.712 187.259 36.8804 188.746C36.0488 190.232 35.3684 191.573 35.3684 191.725C35.3684 191.876 39.0893 192 43.6375 192H51.9065L56.6034 187.474C62.1587 182.12 66.5794 178.876 72.5044 175.805C87.9499 167.8 104.027 165.817 125.053 169.323C131.084 170.328 132.739 170.901 133.602 172.28C133.94 172.821 135.689 177.479 137.488 182.632L140.76 192H166.38C180.471 192 192 191.919 192 191.82C192 191.72 180.371 160.505 166.158 122.451C151.945 84.3979 135.911 41.4627 130.527 27.0396C123.862 9.18484 120.495 0.685895 119.976 0.408001C119.509 0.157895 109.685 0 94.6194 0C71.72 0 69.9815 0.0509474 69.3878 0.736842ZM103.268 85.3684C108.04 98.9739 112.061 110.407 112.203 110.775C112.425 111.354 111.639 111.287 106.44 110.288C98.3415 108.731 91.0425 107.811 84.3002 107.497C81.2232 107.354 78.6244 107.106 78.5255 106.946C78.4261 106.785 80.8657 99.2834 83.9461 90.2745C87.027 81.2657 90.5516 70.9107 91.779 67.2632C93.0067 63.6156 94.141 60.6316 94.3006 60.6316C94.4602 60.6316 98.4952 71.7634 103.268 85.3684ZM100.421 113.525C110.719 115.071 122.532 118.979 133.265 124.391C139.848 127.711 152.421 135.613 152.421 136.431C152.421 136.68 149.469 136.876 144.947 136.927C134.979 137.04 135.251 137.069 132.082 135.556C130.556 134.827 129.061 134.316 128.759 134.42C128.457 134.524 127.104 133.861 125.75 132.947L123.29 131.284L121.526 131.958C119.465 132.745 115.295 132.846 113.972 132.142C112.549 131.384 112.072 130.504 111.76 128.065L111.472 125.815L105.96 123.118C102.928 121.635 100.394 120.421 100.329 120.421C99.8606 120.421 100.369 125.478 101.064 127.726C102.074 130.997 103.554 132.903 105.881 133.931C108.208 134.958 114.367 135.715 118.592 135.493C120.518 135.392 122.049 135.352 121.995 135.405C121.94 135.457 117.151 136.928 111.353 138.672C98.6606 142.491 93.416 144.336 85.4274 147.791C79.0573 150.546 62.8004 158.625 52.8653 163.973C49.6362 165.712 46.9326 167.073 46.8577 166.998C46.7827 166.923 48.7646 164.891 51.2619 162.483C54.7688 159.101 57.5579 156.956 63.5208 153.053C72.4126 147.232 72.4278 146.93 63.7196 149.067C43.8265 153.949 25.4434 163.195 12.1457 175.005C9.70947 177.168 8.99158 177.415 10.7794 175.474C11.4724 174.721 13.7339 172.211 15.8051 169.895C36.7781 146.443 53.0345 133.336 67.5789 128.149C70.8893 126.968 70.9187 126.945 69.2931 126.812C64.6227 126.431 49.3545 130.472 38.416 134.986C36.5027 135.775 34.8055 136.421 34.6438 136.421C34.4821 136.421 35.8581 135.315 37.7015 133.963C59.4501 118.007 83.0872 113.205 109.406 119.397C111.8 119.96 114.263 120.414 114.88 120.406L116 120.391L114.947 119.783C113.286 118.822 106.274 116.646 102.113 115.8C97.5954 114.881 91.5992 114.252 83.6657 113.864C80.4716 113.708 77.9347 113.504 78.0286 113.41C78.1225 113.316 79.9781 113.071 82.1524 112.864C87.0177 112.403 94.8202 112.685 100.421 113.525ZM137.176 143.821C141.591 144.724 146.037 146.238 150.316 148.295C153.414 149.784 154.517 150.643 158.526 154.692C161.931 158.13 163.578 160.165 164.743 162.377C166.801 166.285 168 171.027 168 175.264V178.604L165.858 176.678C157.727 169.368 144.64 163.683 128.421 160.414C117.835 158.281 112.429 157.767 100.14 157.724C93.9651 157.702 88.9469 157.65 88.9891 157.608C89.0312 157.565 92.8522 156.585 97.48 155.429C106.926 153.069 115.075 151.37 119.158 150.909C121.71 150.621 121.81 150.572 120.634 150.178C119.268 149.721 106.432 150.458 103.36 151.171C102.438 151.384 101.021 151.555 100.211 151.549L98.7368 151.54L100.632 150.558C103.404 149.122 109.998 146.731 114.105 145.672C123.801 143.174 131.132 142.586 137.176 143.821Z" fill="black"/>
<path d="M111.422 125.862C110.962 125.248 123.763 130.932 123.251 131.341C122.739 131.751 116.732 133.624 113.778 132.058C110.824 130.493 111.883 126.477 111.422 125.862Z" fill="#F07F20"/>
</svg>
